<?xml version="1.0" encoding="utf-8"?>
<!-- Generator: Adobe Illustrator 27.7.0, SVG Export Plug-In . SVG Version: 6.00 Build 0)  -->
<svg version="1.1" id="Layer_1" xmlns="http://www.w3.org/2000/svg" xmlns:xlink="http://www.w3.org/1999/xlink" x="0px" y="0px"
	 viewBox="0 0 242 331.2" style="enable-background:new 0 0 242 331.2;" xml:space="preserve">
<style type="text/css">
	.st0{fill:#FFFFFF;}
	.st1{clip-path:url(#SVGID_00000000183524723298241710000016578754805167408572_);fill:#E62419;}
	.st2{fill:#E62419;}
</style>
<path class="st0" d="M30.9,176.3c-2.7,3.4-7.1,5.4-11.7,5.5c-4.6,0-9-2.1-11.7-5.5c-0.2-0.3-0.3-0.6-0.3-0.9c0-0.3,0.2-0.6,0.5-0.8
	c0.2-0.2,0.5-0.3,0.8-0.3c0.4,0,0.7,0.2,1,0.5c2.2,2.8,5.9,4.5,9.8,4.5s7.5-1.7,9.8-4.5c0.2-0.3,0.6-0.5,1-0.5
	c0.3,0,0.6,0.1,0.8,0.3c0.3,0.2,0.4,0.5,0.5,0.8C31.2,175.7,31.1,176,30.9,176.3 M38.4,167.8c0-0.6-0.3-1.2-0.7-1.6l-17-16.6
	c-0.4-0.4-0.9-0.6-1.5-0.6s-1.1,0.2-1.5,0.6l-6.4,6.3v-1.1c0-1.2-1-2.2-2.1-2.2H6.7c-1.2,0-2.1,1-2.1,2.2v7.6l-3.9,3.8
	c-0.4,0.4-0.6,0.9-0.6,1.5c0,1.2,1,2.2,2.1,2.2h2.3v14.4c0,1.2,1,2.2,2.1,2.2h11.2h14c1.2,0,2.1-1,2.1-2.2v-14.4h2.4
	C37.4,170,38.4,169,38.4,167.8 M66.7,185v-23.3c0-1-0.5-1.6-1.5-1.6h-1.7c-1,0-1.6,0.6-1.6,1.6v9.4c-1.8,1-3.8,1.5-5.8,1.5
	c-2.2,0-4.3-0.6-6.2-1.8v-9.1c0-1-0.5-1.6-1.5-1.6h-1.7c-1,0-1.5,0.6-1.5,1.6V185c0,1,0.5,1.6,1.5,1.6h1.7c1,0,1.5-0.5,1.5-1.6v-9.6
	c2,1,4.1,1.5,6.2,1.5c2,0,3.9-0.5,5.8-1.3v9.4c0,1,0.5,1.6,1.6,1.6h1.7C66.2,186.6,66.7,186,66.7,185 M84.1,177.1
	c0,3.5-2.5,5.9-5.6,5.9s-5.6-2.4-5.6-5.9s2.5-5.9,5.6-5.9C81.5,171.2,84.1,173.6,84.1,177.1 M88.9,177.1c0-5.8-4.7-9.9-10.4-9.9
	c-5.7,0-10.3,4.1-10.3,9.9c0,5.8,4.6,9.9,10.3,9.9C84.2,187,88.9,182.9,88.9,177.1 M119,185v-10.6c0-5-2.3-7.2-6.2-7.2
	c-3,0-5.4,1.9-6.4,3.9h-0.1c-0.8-2.6-2.7-3.9-5.5-3.9c-3,0-5.2,2.2-6.2,4h-0.1c0,0,0.1-0.4,0.1-0.9v-1.2c0-1-0.5-1.6-1.5-1.6h-1.4
	c-1,0-1.5,0.6-1.5,1.6V185c0,1,0.5,1.6,1.5,1.6h1.6c1,0,1.5-0.5,1.5-1.6v-6.9c0-3.2,1.6-6.6,4.9-6.6c2.2,0,2.5,1.7,2.5,3.8v9.7
	c0,1,0.6,1.6,1.6,1.6h1.6c1,0,1.5-0.5,1.5-1.6v-6.9c0-3.3,1.6-6.6,4.8-6.6c2.2,0,2.6,1.6,2.6,3.8v9.7c0,1,0.5,1.6,1.6,1.6h1.6
	C118.5,186.6,119,186,119,185 M124.6,176.1c-0.2-2.6,1-4.6,3.3-5.2c2.1-0.6,4,0.5,4.8,3.1c-1.1-0.2-2.5,0-4.1,0.4
	C127,174.7,125.6,175.3,124.6,176.1 M138.4,182.9c0.7-0.7,0.6-1.4,0-2.1l-0.6-0.6c-0.7-0.7-1.1-0.8-1.9-0.1c-0.7,0.8-2,2.1-3.7,2.5
	c-3.2,0.8-5.8-0.5-7-3.7l0,0c1.6,0.2,3.8,0.1,6.2-0.6c2.7-0.7,4.5-1.7,5.5-2.8l0,0c0.4-0.4,0.6-1,0.5-1.6c-1.3-5-5.2-7.9-10.4-6.5
	c-5.5,1.5-8.2,6.4-6.7,12.1c1.4,5.2,6.3,8.6,12.3,6.9C135.6,185.6,137.4,183.9,138.4,182.9 M144.6,167.1c0-1.8,1.6-3,4-3
	c2,0,3.5,0.8,4.5,1.4c0.8,0.4,1.6,0.6,2.1-0.5l0.7-1.2c0.4-0.8,0.3-1.5-0.5-2.1c-1.1-0.8-3.7-2-6.8-2c-5,0-8.8,3-8.8,7.7
	c0,8.2,12.2,7.2,12.2,12.2c0,1.8-1.5,3-3.9,3c-2.6,0-4.5-1.3-5.3-1.9c-0.9-0.5-1.6-0.5-2.1,0.3l-0.8,1.2c-0.7,1-0.4,1.6,0.2,2.2
	c1.3,1,4.3,2.7,8.1,2.7c5.5,0,8.7-3.5,8.7-7.8C156.8,170.8,144.6,172.1,144.6,167.1 M170.9,174.7c-1.1-0.4-2.4-0.6-4.1-0.5
	c-1.6,0.1-3.1,0.4-4.3,0.9c0.3-2.5,2-4.3,4.4-4.4C169,170.6,170.7,172.1,170.9,174.7 M175.6,175.8c-0.2-5.2-3.4-8.9-8.7-8.7
	c-5.6,0.2-9.4,4.5-9.1,10.3c0.2,5.4,4.3,9.7,10.5,9.5c3-0.1,5.1-1.3,6.3-2.2c0.8-0.5,0.9-1.3,0.4-2.1l-0.5-0.7
	c-0.5-0.8-0.9-1-1.8-0.5c-0.9,0.6-2.4,1.6-4.2,1.6c-3.3,0.1-5.6-1.8-6-5.1l0,0c1.5,0.6,3.7,0.9,6.2,0.8c2.8-0.1,4.8-0.7,6-1.5l0,0
	C175.3,176.9,175.6,176.4,175.6,175.8 M188.4,170.5V169c0-1-0.4-1.6-1.4-1.6c-2.7,0-4.7,2.5-5.5,4.8h-0.1c0,0,0.1-0.6,0.1-1.3v-1.8
	c0-1-0.6-1.6-1.6-1.6h-1.4c-1,0-1.5,0.6-1.5,1.6V185c0,1,0.5,1.6,1.5,1.6h1.6c1,0,1.5-0.5,1.5-1.6v-6.1c0-3.5,1.7-6.9,5.1-6.9
	C187.8,172,188.4,171.5,188.4,170.5 M207.1,169.4c0.4-1.1-0.1-1.8-1.3-1.8h-1.7c-0.9,0-1.5,0.4-1.7,1.3l-3.5,10.4
	c-0.4,1.1-0.7,2.9-0.7,2.9h-0.1c0,0-0.3-1.7-0.7-2.9l-3.5-10.4c-0.3-0.9-0.8-1.3-1.7-1.3h-1.7c-1.1,0-1.6,0.7-1.2,1.8l5.8,15.9
	c0.3,0.9,0.8,1.3,1.7,1.3h3c0.9,0,1.4-0.4,1.7-1.3L207.1,169.4z M219.4,174.7c-1.1-0.4-2.4-0.6-4.1-0.5c-1.6,0.1-3.1,0.4-4.3,0.9
	c0.3-2.5,2-4.3,4.4-4.4C217.6,170.6,219.3,172.1,219.4,174.7 M224.2,175.8c-0.2-5.2-3.4-8.9-8.7-8.7c-5.6,0.2-9.4,4.5-9.1,10.3
	c0.2,5.4,4.3,9.7,10.5,9.5c3-0.1,5.1-1.3,6.3-2.2c0.8-0.5,0.9-1.3,0.4-2.1l-0.5-0.7c-0.5-0.8-0.9-1-1.8-0.5
	c-0.9,0.6-2.4,1.6-4.2,1.6c-3.3,0.1-5.6-1.8-6-5.1l0,0c1.5,0.6,3.7,0.9,6.2,0.8c2.8-0.1,4.8-0.7,6-1.5l0,0
	C223.9,176.9,224.2,176.4,224.2,175.8"/>
<path class="st0" d="M26,322c-2.3,2.9-6,4.6-9.9,4.6s-7.6-1.7-9.9-4.6c-0.2-0.2-0.3-0.5-0.2-0.8c0-0.3,0.2-0.5,0.4-0.7
	c0.2-0.2,0.4-0.2,0.7-0.2c0.3,0,0.6,0.1,0.8,0.4c1.9,2.4,5,3.8,8.2,3.8c3.3,0,6.3-1.4,8.2-3.8c0.2-0.3,0.5-0.4,0.8-0.4
	c0.2,0,0.5,0.1,0.7,0.2c0.2,0.2,0.4,0.4,0.4,0.7C26.3,321.5,26.2,321.8,26,322 M32.3,314.9c0-0.5-0.2-1-0.6-1.3l-14.3-14
	c-0.3-0.3-0.8-0.5-1.3-0.5s-0.9,0.2-1.3,0.5l-5.4,5.3V304c0-1-0.8-1.8-1.8-1.8h-2c-1,0-1.8,0.8-1.8,1.8v6.4l-3.3,3.2
	c-0.3,0.3-0.5,0.8-0.5,1.3c0,1,0.8,1.8,1.8,1.8h1.9v12.2c0,1,0.8,1.8,1.8,1.8h9.4h11.8c1,0,1.8-0.8,1.8-1.8v-12.2h2
	C31.5,316.7,32.3,315.8,32.3,314.9 M56.2,329.3v-19.6c0-0.8-0.4-1.3-1.3-1.3h-1.4c-0.9,0-1.3,0.5-1.3,1.3v7.9
	c-1.5,0.8-3.2,1.3-4.9,1.3c-1.8,0-3.6-0.5-5.2-1.5v-7.7c0-0.8-0.4-1.3-1.3-1.3h-1.4c-0.8,0-1.3,0.5-1.3,1.3v19.6
	c0,0.9,0.4,1.3,1.3,1.3h1.4c0.8,0,1.3-0.4,1.3-1.3v-8.1c1.7,0.8,3.4,1.3,5.2,1.3c1.7,0,3.3-0.4,4.9-1.1v7.9c0,0.9,0.4,1.3,1.3,1.3
	h1.4C55.7,330.6,56.2,330.2,56.2,329.3 M70.8,322.6c0,3-2.1,5-4.7,5s-4.7-2-4.7-5c0-2.9,2.1-5,4.7-5
	C68.7,317.7,70.8,319.7,70.8,322.6 M74.8,322.6c0-4.9-3.9-8.4-8.7-8.4s-8.7,3.5-8.7,8.4s3.9,8.4,8.7,8.4S74.8,327.6,74.8,322.6
	 M100.2,329.3v-8.9c0-4.2-1.9-6.1-5.2-6.1c-2.5,0-4.6,1.6-5.4,3.3h-0.1c-0.7-2.2-2.2-3.3-4.6-3.3c-2.5,0-4.4,1.8-5.2,3.4h-0.1
	c0,0,0.1-0.4,0.1-0.7v-1c0-0.8-0.4-1.3-1.3-1.3h-1.2c-0.8,0-1.3,0.5-1.3,1.3v13.3c0,0.9,0.4,1.3,1.3,1.3h1.4c0.8,0,1.3-0.4,1.3-1.3
	v-5.8c0-2.7,1.3-5.5,4.1-5.5c1.9,0,2.1,1.5,2.1,3.2v8.2c0,0.9,0.5,1.3,1.3,1.3h1.4c0.8,0,1.3-0.4,1.3-1.3v-5.8c0-2.8,1.4-5.5,4-5.5
	c1.8,0,2.2,1.4,2.2,3.2v8.2c0,0.9,0.4,1.3,1.3,1.3h1.3C99.8,330.6,100.2,330.2,100.2,329.3 M104.9,321.8c-0.2-2.1,0.8-3.9,2.8-4.4
	c1.7-0.5,3.4,0.5,4,2.6c-1-0.1-2.1,0-3.4,0.3C106.9,320.6,105.8,321.1,104.9,321.8 M116.5,327.5c0.6-0.6,0.5-1.2,0-1.8l-0.5-0.5
	c-0.6-0.6-0.9-0.7-1.6-0.1c-0.6,0.6-1.7,1.7-3.1,2.1c-2.7,0.7-4.9-0.4-5.9-3.1l0,0c1.4,0.2,3.2,0,5.3-0.5c2.3-0.6,3.8-1.4,4.6-2.3
	l0,0c0.4-0.3,0.5-0.9,0.4-1.3c-1.1-4.2-4.4-6.7-8.7-5.5c-4.6,1.2-6.9,5.4-5.6,10.2c1.2,4.4,5.3,7.2,10.4,5.8
	C114.1,329.8,115.7,328.4,116.5,327.5 M121.7,314.3c0-1.5,1.3-2.5,3.4-2.5c1.7,0,2.9,0.7,3.8,1.2c0.7,0.3,1.3,0.5,1.8-0.4l0.6-1
	c0.4-0.7,0.3-1.3-0.4-1.8c-0.9-0.7-3.1-1.7-5.7-1.7c-4.2,0-7.4,2.5-7.4,6.4c0,6.9,10.3,6,10.3,10.3c0,1.5-1.2,2.5-3.3,2.5
	c-2.2,0-3.8-1.1-4.5-1.6c-0.8-0.4-1.3-0.4-1.8,0.3l-0.7,1c-0.6,0.8-0.3,1.4,0.2,1.8c1.1,0.8,3.6,2.3,6.8,2.3c4.6,0,7.3-3,7.3-6.6
	C132,317.4,121.7,318.4,121.7,314.3 M143.9,320.7c-0.9-0.3-2.1-0.5-3.4-0.4c-1.4,0.1-2.6,0.3-3.6,0.7c0.3-2.1,1.6-3.6,3.7-3.7
	C142.3,317.2,143.7,318.5,143.9,320.7 M147.8,321.6c-0.2-4.4-2.8-7.5-7.4-7.3c-4.8,0.2-7.9,3.8-7.7,8.7c0.2,4.5,3.6,8.2,8.9,8
	c2.5-0.1,4.3-1.1,5.3-1.8c0.7-0.4,0.8-1.1,0.4-1.8l-0.4-0.6c-0.4-0.7-0.7-0.8-1.5-0.4c-0.7,0.5-2,1.3-3.5,1.4
	c-2.8,0.1-4.7-1.5-5.1-4.3l0,0c1.3,0.5,3.1,0.7,5.2,0.6c2.3-0.1,4-0.6,5-1.3l0,0C147.6,322.5,147.9,322,147.8,321.6 M158.6,317.1
	v-1.2c0-0.9-0.3-1.3-1.2-1.3c-2.2,0-4,2.1-4.6,4h-0.1c0,0,0.1-0.5,0.1-1.1V316c0-0.8-0.5-1.3-1.3-1.3h-1.2c-0.8,0-1.3,0.5-1.3,1.3
	v13.3c0,0.9,0.4,1.3,1.3,1.3h1.4c0.8,0,1.3-0.4,1.3-1.3v-5.1c0-2.9,1.4-5.8,4.3-5.8C158.1,318.4,158.6,317.9,158.6,317.1
	 M174.4,316.2c0.3-0.9-0.1-1.5-1.1-1.5h-1.5c-0.7,0-1.2,0.3-1.5,1.1l-3,8.8c-0.3,0.9-0.6,2.4-0.6,2.4h-0.1c0,0-0.3-1.5-0.6-2.4
	l-3-8.8c-0.2-0.7-0.7-1.1-1.5-1.1H160c-1,0-1.3,0.6-1,1.5l4.9,13.4c0.2,0.8,0.7,1.1,1.5,1.1h2.5c0.7,0,1.2-0.3,1.5-1.1L174.4,316.2z
	 M184.8,320.7c-0.9-0.3-2.1-0.5-3.4-0.4c-1.4,0.1-2.6,0.3-3.6,0.7c0.3-2.1,1.6-3.6,3.7-3.7C183.2,317.2,184.6,318.5,184.8,320.7
	 M188.7,321.6c-0.2-4.4-2.8-7.5-7.4-7.3c-4.8,0.2-7.9,3.8-7.7,8.7c0.2,4.5,3.6,8.2,8.9,8c2.5-0.1,4.3-1.1,5.3-1.8
	c0.7-0.4,0.8-1.1,0.4-1.8l-0.4-0.6c-0.4-0.7-0.7-0.8-1.5-0.4c-0.7,0.5-2,1.3-3.5,1.4c-2.8,0.1-4.7-1.5-5.1-4.3l0,0
	c1.3,0.5,3.1,0.7,5.2,0.6c2.3-0.1,4-0.6,5-1.3l0,0C188.5,322.5,188.8,322,188.7,321.6"/>
<g>
	<g>
		<g>
			<defs>
				<rect id="SVGID_1_" width="172.2" height="61.7"/>
			</defs>
			<clipPath id="SVGID_00000138546952565255983890000007610242100047324816_">
				<use xlink:href="#SVGID_1_"  style="overflow:visible;"/>
			</clipPath>
			<path style="clip-path:url(#SVGID_00000138546952565255983890000007610242100047324816_);fill:#E62419;" d="M47.6,46.6L47.6,46.6
				c-0.1,0,0-0.4,0-0.8v-1.1c0-1-0.5-1.5-1.5-1.5h-1.4c-1,0-1.5,0.5-1.5,1.5v15.1c0,1,0.5,1.5,1.5,1.5h1.6c1,0,1.5-0.5,1.5-1.5v-6.6
				c0-3,1.5-6.3,4.7-6.3c2.1,0,2.4,1.7,2.4,3.6v9.3c0,1,0.5,1.5,1.5,1.5H58c1,0,1.5-0.5,1.5-1.5v-6.6c0-3.2,1.6-6.3,4.6-6.3
				c2.1,0,2.5,1.6,2.5,3.6v9.3c0,1,0.5,1.5,1.5,1.5h1.5c1,0,1.5-0.5,1.5-1.5V49.7c0-4.8-2.2-6.9-5.9-6.9c-2.8,0-5.2,1.8-6.2,3.7
				h-0.1c-0.7-2.5-2.6-3.7-5.3-3.7C50.7,42.8,48.5,44.8,47.6,46.6 M20.7,59.8V37.6c0-1-0.5-1.5-1.5-1.5h-1.6c-1,0-1.5,0.5-1.5,1.5v9
				c-1.8,1-3.6,1.5-5.6,1.5c-2.1,0-4.1-0.6-6-1.7v-8.7c0-1-0.5-1.5-1.5-1.5H1.5c-1,0-1.5,0.5-1.5,1.5V60c0,1,0.5,1.5,1.5,1.5h1.6
				c1,0,1.5-0.5,1.5-1.5v-9.2c1.9,0.9,3.9,1.4,6,1.4c1.9,0,3.8-0.4,5.6-1.2v9c0,1,0.5,1.5,1.5,1.5h1.6
				C20.2,61.3,20.7,60.8,20.7,59.8 M37.4,52.3c0,3.4-2.5,5.7-5.4,5.7s-5.4-2.3-5.4-5.7c0-3.3,2.4-5.7,5.4-5.7S37.4,48.9,37.4,52.3
				 M32,42.8c-5.5,0-10,3.9-10,9.5s4.4,9.5,10,9.5s10-3.9,10-9.5S37.5,42.8,32,42.8 M68.4,26.1c-2.6,3.3-6.8,5.2-11.3,5.2
				s-8.7-2-11.3-5.2c-0.2-0.3-0.3-0.6-0.3-0.9s0.2-0.6,0.4-0.8c0.2-0.2,0.5-0.3,0.8-0.3c0.4,0,0.7,0.2,0.9,0.5
				c2.2,2.7,5.7,4.3,9.4,4.3s7.2-1.6,9.4-4.3c0.2-0.3,0.6-0.5,0.9-0.5s0.5,0.1,0.8,0.3c0.3,0.2,0.4,0.5,0.4,0.8
				C68.7,25.6,68.6,25.9,68.4,26.1 M75.6,18c0-0.6-0.3-1.1-0.7-1.5L58.5,0.6C58.2,0.2,57.6,0,57.1,0c-0.6,0-1.1,0.2-1.5,0.6l-6.2,6
				v-1c0-1.1-0.9-2.1-2.1-2.1H45c-1.1,0-2.1,0.9-2.1,2.1v7.3l-3.7,3.7c-0.4,0.4-0.6,0.9-0.6,1.5c0,1.1,0.9,2.1,2.1,2.1h2.2V34
				c0,1.1,0.9,2.1,2.1,2.1h10.8h13.5c1.1,0,2.1-0.9,2.1-2.1V20.2h2.3C74.7,20.1,75.6,19.2,75.6,18 M76.4,51.3c-0.2-2.4,1-4.4,3.2-5
				c2-0.5,3.8,0.5,4.6,2.9c-1.1-0.1-2.4,0-3.9,0.4C78.7,49.9,77.4,50.5,76.4,51.3 M89.7,57.8c0.6-0.6,0.6-1.4,0-2.1L89,55.2
				c-0.7-0.7-1-0.7-1.8-0.1c-0.7,0.7-2,2-3.6,2.4C80.5,58.3,78,57,76.9,54l0,0c1.5,0.2,3.6,0.1,6-0.6c2.6-0.7,4.4-1.6,5.3-2.7l0,0
				c0.4-0.4,0.6-1,0.5-1.5c-1.3-4.8-5-7.6-10-6.3c-5.3,1.4-7.9,6.2-6.4,11.6c1.3,5,6.1,8.2,11.9,6.6C86.9,60.4,88.7,58.8,89.7,57.8
				 M95.6,42.7c0-1.7,1.5-2.8,3.8-2.8c2,0,3.3,0.8,4.4,1.4c0.7,0.4,1.5,0.5,2-0.5l0.6-1.2c0.4-0.8,0.3-1.5-0.5-2
				c-1.1-0.8-3.5-1.9-6.5-1.9c-4.8,0-8.5,2.9-8.5,7.3c0,7.9,11.8,6.9,11.8,11.7c0,1.7-1.4,2.9-3.8,2.9c-2.5,0-4.3-1.3-5.1-1.8
				c-0.9-0.5-1.5-0.5-2.1,0.3l-0.7,1c-0.7,1-0.4,1.6,0.2,2.1c1.2,1,4.2,2.6,7.8,2.6c5.3,0,8.4-3.4,8.4-7.5
				C107.4,46.2,95.6,47.5,95.6,42.7 M120.9,50c-1-0.4-2.4-0.6-3.9-0.5c-1.6,0.1-3,0.4-4.1,0.9c0.3-2.4,1.9-4.1,4.2-4.2
				C119.2,46.1,120.7,47.5,120.9,50 M125.5,51c-0.2-5-3.3-8.5-8.4-8.3c-5.4,0.2-9,4.3-8.8,9.9c0.2,5.1,4.1,9.3,10.1,9.1
				c2.8-0.1,4.9-1.3,6.1-2.1c0.8-0.5,0.9-1.2,0.4-2l-0.5-0.7c-0.5-0.8-0.9-1-1.7-0.5c-0.8,0.6-2.3,1.5-4,1.6
				c-3.2,0.1-5.4-1.7-5.8-4.9l0,0c1.5,0.6,3.5,0.8,6,0.7c2.7-0.1,4.6-0.7,5.8-1.4l0,0C125.2,52.1,125.5,51.6,125.5,51 M137.7,45.9
				v-1.4c0-1-0.4-1.5-1.4-1.5c-2.6,0-4.6,2.4-5.3,4.6h-0.1c0,0,0.1-0.6,0.1-1.2v-1.7c0-1-0.5-1.5-1.5-1.5h-1.4c-1,0-1.5,0.5-1.5,1.5
				v15.1c0,1,0.5,1.5,1.5,1.5h1.6c1,0,1.5-0.5,1.5-1.5V54c0-3.3,1.6-6.6,4.9-6.6C137.2,47.4,137.7,46.9,137.7,45.9 M155.8,44.9
				c0.4-1-0.1-1.7-1.2-1.7h-1.7c-0.9,0-1.4,0.4-1.7,1.2l-3.4,10c-0.4,1.1-0.6,2.7-0.6,2.7h-0.1c0,0-0.3-1.7-0.7-2.7l-3.4-10
				c-0.2-0.9-0.8-1.2-1.7-1.2h-1.7c-1.1,0-1.5,0.7-1.2,1.7l5.5,15.2c0.2,0.9,0.8,1.2,1.7,1.2h2.8c0.9,0,1.4-0.4,1.7-1.2L155.8,44.9z
				 M167.7,50c-1-0.4-2.4-0.6-3.9-0.5c-1.6,0.1-3,0.4-4.1,0.9c0.3-2.4,1.9-4.1,4.2-4.2C165.9,46.1,167.5,47.5,167.7,50 M172.2,51
				c-0.2-5-3.3-8.5-8.4-8.3c-5.4,0.2-9,4.3-8.8,9.9c0.2,5.1,4.1,9.3,10.1,9.1c2.8-0.1,4.9-1.3,6.1-2.1c0.8-0.5,0.9-1.2,0.4-2
				l-0.5-0.7c-0.5-0.8-0.9-1-1.7-0.5c-0.8,0.6-2.3,1.5-4,1.6c-3.2,0.1-5.4-1.7-5.8-4.9l0,0c1.5,0.6,3.5,0.8,6,0.7
				c2.7-0.1,4.6-0.7,5.8-1.4l0,0C171.9,52.1,172.2,51.6,172.2,51"/>
		</g>
	</g>
	<g>
		<path class="st2" d="M169.7,35.7c1.4,0,2.5,1.1,2.5,2.6c0,1.4-1.1,2.6-2.5,2.6s-2.5-1.2-2.5-2.6C167.2,36.8,168.3,35.7,169.7,35.7
			z M169.7,40.2c1.1,0,1.9-0.9,1.9-2s-0.8-2-1.9-2c-1.1,0-1.9,0.9-1.9,2S168.6,40.2,169.7,40.2z M168.8,37.2c0-0.2,0.1-0.3,0.3-0.3
			h0.8c0.5,0,0.8,0.3,0.8,0.8c0,0.4-0.3,0.6-0.4,0.7l0,0c0,0,0,0,0.1,0.1l0.3,0.6c0.1,0.2,0,0.3-0.1,0.3h-0.1
			c-0.2,0-0.3-0.1-0.3-0.2l-0.3-0.7h-0.3v0.7c0,0.2-0.1,0.3-0.3,0.3l0,0c-0.2,0-0.3-0.1-0.3-0.3v-2H168.8z M169.7,38.1
			c0.2,0,0.4-0.1,0.4-0.4c0-0.2-0.1-0.4-0.4-0.4h-0.3v0.8C169.4,38.1,169.7,38.1,169.7,38.1z"/>
	</g>
</g>
</svg>
